<svg width="32" height="32" viewBox="0 0 32 32" fill="none" xmlns="http://www.w3.org/2000/svg">
<path fill-rule="evenodd" clip-rule="evenodd" d="M4.51752 20.3484H7.10077V14.4525L4.51752 14.9564V20.3484ZM19.8148 13.8261C20.7075 13.8261 21.1132 14.466 21.1945 15.147L18.2323 15.7325C18.327 14.7112 18.7869 13.8261 19.8148 13.8261ZM29.0529 20.3484H31.6363V13.2407L29.0529 13.7445V20.3484ZM15.9196 12.7096L13.1196 13.2679L11.4832 17.4345L10.1441 13.8534L7.61488 14.3437L10.0495 20.3484H12.7004L15.9196 12.7096ZM23.061 19.7764V17.7341C22.4929 17.9928 21.5731 18.3602 20.5722 18.3602C19.6931 18.3602 18.7735 18.1016 18.3947 17.1758L23.8049 16.1136C23.6696 13.8126 22.3846 11.9742 19.923 11.9742C17.5021 11.9742 15.7031 13.7445 15.7031 16.3451C15.7031 18.8506 17.5561 20.4709 20.0719 20.4709C21.2891 20.4709 22.3036 20.1985 23.061 19.7764ZM5.80233 11.2118C4.92319 11.2118 4.3552 11.7838 4.3552 12.4781C4.3552 13.1863 4.93678 13.7445 5.80233 13.7445C6.68151 13.7445 7.24967 13.1863 7.24967 12.4372C7.24967 11.7429 6.69511 11.2118 5.80233 11.2118ZM3.38137 18.4693C2.86744 18.4693 2.58327 18.2106 2.58327 17.6251V10.5311L0 11.0485V18.0472C0 19.6267 0.879166 20.4709 2.48861 20.4709C3.05676 20.4709 3.47605 20.3893 3.77345 20.3212V18.4284C3.63834 18.4558 3.48947 18.4693 3.38137 18.4693ZM27.9166 18.4693C27.4027 18.4693 27.1187 18.2106 27.1187 17.6251V10.5311L24.5352 11.0485V18.0472C24.5352 19.6267 25.4144 20.4709 27.024 20.4709C27.592 20.4709 28.0114 20.3893 28.309 20.3212V18.4284C28.1737 18.4558 28.0248 18.4693 27.9166 18.4693ZM30.3378 10C29.4585 10 28.8904 10.572 28.8904 11.2663C28.8904 11.9742 29.4723 12.5327 30.3378 12.5327C31.217 12.5327 31.7851 11.9742 31.7851 11.2254C31.7851 10.5311 31.2305 10 30.3378 10Z" fill="#283897"/>
<path fill-rule="evenodd" clip-rule="evenodd" d="M26.6315 23.5104L26.5269 24.0361C26.4809 24.2493 26.3533 24.3914 26.0929 24.3914C25.7936 24.3914 25.715 24.2047 25.7804 23.9421C25.8734 23.5695 26.1752 23.4584 26.6315 23.5104ZM27.1024 22.7588L26.7844 22.7793L26.6838 23.294C26.5625 23.2897 26.5241 23.2858 26.3811 23.2858C25.9337 23.2858 25.5433 23.4751 25.4402 23.9192C25.3472 24.3195 25.5733 24.6303 26.0659 24.6303C26.5706 24.6303 26.7901 24.3652 26.8691 23.9925L27.1024 22.7588Z" fill="#283897"/>
<path fill-rule="evenodd" clip-rule="evenodd" d="M23.6535 23.533C23.1874 23.4902 22.7865 23.5291 22.7798 23.6886C22.7697 23.9277 23.5482 23.719 23.5331 24.1592C23.5112 24.8057 22.429 24.657 22.1611 24.5748L22.2097 24.3827C22.6714 24.4567 23.1587 24.4627 23.1693 24.2064C23.1807 23.9338 22.3992 24.1788 22.4175 23.7375C22.4312 23.4088 22.9195 23.2316 23.7193 23.3496L23.6535 23.533Z" fill="#283897"/>
<path fill-rule="evenodd" clip-rule="evenodd" d="M24.9104 23.9729C24.8432 24.2428 24.6305 24.4124 24.3774 24.4124C24.1127 24.4124 23.9936 24.2578 24.0645 23.9729C24.1318 23.7029 24.347 23.5219 24.6 23.5219C24.8529 23.5219 24.9777 23.7029 24.9104 23.9729ZM24.6408 23.3008C24.1772 23.3008 23.8045 23.5708 23.7129 23.9729C23.6212 24.3752 23.8706 24.6451 24.3342 24.6451C24.7976 24.6451 25.1701 24.3752 25.2619 23.9729C25.3538 23.5708 25.1044 23.3008 24.6408 23.3008Z" fill="#283897"/>
<path fill-rule="evenodd" clip-rule="evenodd" d="M29.9968 24.6383H29.5937C29.3495 24.407 28.8819 23.8756 28.5378 23.3132H28.8336C29.1604 23.7671 29.9968 24.6383 29.9968 24.6383Z" fill="#283897"/>
<path fill-rule="evenodd" clip-rule="evenodd" d="M30.419 22.0063L30.6046 21.6172L30.6571 22.0128L31.0356 21.8796L30.771 22.2206L31.0579 22.4441L30.6753 22.4739L30.6542 22.8853L30.4416 22.5813L30.129 22.8712L30.2461 22.4625L29.8777 22.4121L30.2364 22.2065L30.0894 21.8544L30.419 22.0063Z" fill="#283897"/>
<path fill-rule="evenodd" clip-rule="evenodd" d="M31.205 23.977C31.1366 24.251 30.9209 24.4233 30.6634 24.4233C30.3948 24.4233 30.2735 24.2664 30.3457 23.977C30.4141 23.7028 30.6326 23.5188 30.8894 23.5188C31.1469 23.5188 31.2734 23.7028 31.205 23.977ZM30.9311 23.2942C30.4605 23.2942 30.0818 23.5684 29.9885 23.977C29.8957 24.3856 30.149 24.6598 30.6196 24.6598C31.0902 24.6598 31.469 24.3856 31.562 23.977C31.6554 23.5684 31.4017 23.2942 30.9311 23.2942Z" fill="#283897"/>
<path fill-rule="evenodd" clip-rule="evenodd" d="M28.2324 24.5254C28.9934 24.1 29.6545 23.4459 30.1233 22.8804C29.7863 23.9427 28.9748 24.5143 28.2324 24.5254Z" fill="#FF0000"/>
<path fill-rule="evenodd" clip-rule="evenodd" d="M27.9314 23.4981C28.0772 23.4981 28.1566 23.5514 28.1566 23.653C28.1566 23.9231 27.6335 23.9054 27.4028 23.858C27.484 23.6559 27.6671 23.4981 27.9314 23.4981ZM28.47 23.6383C28.47 23.4424 28.315 23.2986 27.9632 23.2986C27.3925 23.2986 27.0217 23.6713 27.0217 24.133C27.0217 24.4312 27.2675 24.679 27.7167 24.679C28.0261 24.679 28.2327 24.5254 28.2327 24.5254C27.839 24.5678 27.3554 24.5254 27.3554 24.1013C27.3554 24.0845 27.3563 24.0676 27.3576 24.0508C27.8948 24.1631 28.47 24.0273 28.47 23.6383Z" fill="#283897"/>
<path fill-rule="evenodd" clip-rule="evenodd" d="M21.1359 23.6198C21.1447 23.5787 21.1465 23.5446 21.1416 23.5176C21.1322 23.4665 21.1004 23.441 21.0464 23.441C20.9919 23.441 20.9489 23.466 20.918 23.5161C20.9017 23.5426 20.8892 23.5772 20.8804 23.6192C20.8699 23.669 20.8721 23.7102 20.887 23.7428C20.9021 23.7754 20.9318 23.7919 20.9767 23.7919C21.0153 23.7919 21.0489 23.7759 21.077 23.7445C21.1053 23.7128 21.125 23.6714 21.1359 23.6198ZM21.2971 23.6038C21.278 23.6939 21.2412 23.7687 21.1862 23.8279C21.1314 23.8872 21.0662 23.9167 20.9903 23.9167C20.9429 23.9167 20.9067 23.9073 20.882 23.8881C20.8673 23.8768 20.8526 23.8568 20.8387 23.8283L20.8234 23.9014H20.6758L20.8409 23.1179H20.9908L20.9322 23.3968C20.9569 23.37 20.9824 23.3494 21.0083 23.335C21.039 23.3174 21.0754 23.3085 21.1173 23.3085C21.193 23.3085 21.2467 23.3361 21.278 23.3909C21.309 23.446 21.3155 23.5169 21.2971 23.6038Z" fill="#283897"/>
<path fill-rule="evenodd" clip-rule="evenodd" d="M21.3601 24.0128L21.379 24.0139C21.3936 24.0145 21.4077 24.0139 21.4215 24.012C21.4351 24.0104 21.4474 24.0065 21.4579 24C21.468 23.9939 21.479 23.9813 21.4906 23.9621C21.5023 23.943 21.5079 23.9314 21.507 23.9269L21.4235 23.3213H21.5911L21.6266 23.7493L21.836 23.3213H21.9961L21.6779 23.8918C21.6165 24.0019 21.5718 24.07 21.5444 24.0964C21.5165 24.1229 21.4695 24.1362 21.4029 24.1362C21.3895 24.1362 21.3787 24.1362 21.3707 24.136C21.3625 24.1356 21.3505 24.1351 21.3347 24.1342L21.3601 24.0128Z" fill="#283897"/>
</svg>
