<svg width="109" height="50" viewBox="0 0 109 50" fill="none" xmlns="http://www.w3.org/2000/svg">
<path fill-rule="evenodd" clip-rule="evenodd" d="M15.3878 35.2491H24.187V15.1664L15.3878 16.8827V35.2491ZM67.494 13.0328C70.535 13.0328 71.9168 15.2124 72.1936 17.5319L62.1039 19.5262C62.4264 16.0475 63.9929 13.0328 67.494 13.0328ZM98.9614 35.2491H107.761V11.0385L98.9614 12.7548V35.2491ZM54.2263 9.22954L44.6888 11.1312L39.1146 25.3237L34.5534 13.1255L25.9382 14.7958L34.231 35.2491H43.2607L54.2263 9.22954ZM78.5517 33.3009V26.3442C76.6164 27.2254 73.4834 28.4771 70.0742 28.4771C67.0796 28.4771 63.9472 27.596 62.6568 24.4426L81.0855 20.8246C80.6247 12.9868 76.2476 6.72472 67.8628 6.72472C59.6164 6.72472 53.4887 12.7548 53.4887 21.6131C53.4887 30.1474 59.8005 35.6664 68.37 35.6664C72.516 35.6664 75.9715 34.7386 78.5517 33.3009ZM19.7642 4.12786C16.7696 4.12786 14.8349 6.07613 14.8349 8.44103C14.8349 10.8532 16.8159 12.7548 19.7642 12.7548C22.7589 12.7548 24.6942 10.8532 24.6942 8.30174C24.6942 5.93684 22.8052 4.12786 19.7642 4.12786ZM11.5178 28.8484C9.76723 28.8484 8.79927 27.9672 8.79927 25.9729V1.80897L0 3.5713V27.4107C0 32.7909 2.99466 35.6664 8.47683 35.6664C10.4121 35.6664 11.8403 35.3884 12.8533 35.1565V28.7091C12.3931 28.8024 11.886 28.8484 11.5178 28.8484ZM95.0908 28.8484C93.3403 28.8484 92.3729 27.9672 92.3729 25.9729V1.80897L83.573 3.5713V27.4107C83.573 32.7909 86.5677 35.6664 92.0505 35.6664C93.9851 35.6664 95.4139 35.3884 96.4276 35.1565V28.7091C95.9668 28.8024 95.4596 28.8484 95.0908 28.8484ZM103.338 0C100.343 0 98.4079 1.94827 98.4079 4.31317C98.4079 6.72472 100.39 8.62697 103.338 8.62697C106.333 8.62697 108.268 6.72472 108.268 4.17387C108.268 1.80897 106.379 0 103.338 0Z" fill="#283897"/>
<path fill-rule="evenodd" clip-rule="evenodd" d="M90.7135 46.0203L90.3573 47.811C90.2007 48.5371 89.7662 49.0212 88.879 49.0212C87.8597 49.0212 87.5917 48.3852 87.8146 47.4908C88.1315 46.2214 89.1595 45.8432 90.7135 46.0203ZM92.3176 43.46L91.2344 43.53L90.8919 45.2829C90.4787 45.2684 90.3479 45.2551 89.8608 45.2551C88.3368 45.2551 87.007 45.8999 86.6557 47.4127C86.3389 48.776 87.109 49.8349 88.787 49.8349C90.5063 49.8349 91.2538 48.9317 91.5231 47.6623L92.3176 43.46Z" fill="#283897"/>
<path fill-rule="evenodd" clip-rule="evenodd" d="M80.5699 46.0968C78.9821 45.9512 77.6165 46.0836 77.594 46.6269C77.5596 47.4413 80.2111 46.7303 80.1598 48.2298C80.0853 50.4321 76.3988 49.9253 75.4865 49.6455L75.6518 48.9912C77.2246 49.2433 78.8844 49.2635 78.9207 48.3905C78.9595 47.4621 76.2973 48.2966 76.3599 46.7933C76.4063 45.6739 78.0698 45.0701 80.794 45.4722L80.5699 46.0968Z" fill="#283897"/>
<path fill-rule="evenodd" clip-rule="evenodd" d="M84.8512 47.5949C84.6221 48.5145 83.8977 49.0919 83.0355 49.0919C82.1339 49.0919 81.7282 48.5656 81.9699 47.5949C82.1991 46.6753 82.9322 46.0588 83.7937 46.0588C84.6553 46.0588 85.0804 46.6753 84.8512 47.5949ZM83.9327 45.3056C82.3537 45.3056 81.084 46.2252 80.7722 47.5949C80.4597 48.9652 81.3094 49.8848 82.8884 49.8848C84.4668 49.8848 85.7359 48.9652 86.0483 47.5949C86.3614 46.2252 85.5118 45.3056 83.9327 45.3056Z" fill="#283897"/>
<path fill-rule="evenodd" clip-rule="evenodd" d="M102.177 49.8615H100.804C99.9722 49.0736 98.3794 47.2634 97.2074 45.3479H98.2148C99.328 46.894 102.177 49.8615 102.177 49.8615Z" fill="#283897"/>
<path fill-rule="evenodd" clip-rule="evenodd" d="M103.615 40.8962L104.247 39.5707L104.426 40.9183L105.715 40.4645L104.814 41.6261L105.791 42.3875L104.488 42.489L104.416 43.8902L103.692 42.8546L102.627 43.8423L103.026 42.4499L101.771 42.2785L102.993 41.5782L102.492 40.3788L103.615 40.8962Z" fill="#283897"/>
<path fill-rule="evenodd" clip-rule="evenodd" d="M106.292 47.6091C106.059 48.5425 105.324 49.1293 104.447 49.1293C103.532 49.1293 103.119 48.5949 103.365 47.6091C103.598 46.6749 104.342 46.0484 105.217 46.0484C106.094 46.0484 106.525 46.6749 106.292 47.6091ZM105.359 45.2832C103.756 45.2832 102.466 46.2173 102.148 47.6091C101.832 49.0008 102.695 49.9349 104.298 49.9349C105.901 49.9349 107.191 49.0008 107.508 47.6091C107.826 46.2173 106.962 45.2832 105.359 45.2832Z" fill="#283897"/>
<path fill-rule="evenodd" clip-rule="evenodd" d="M96.1671 49.4769C98.7592 48.0278 101.011 45.7997 102.608 43.8735C101.46 47.4921 98.6959 49.4391 96.1671 49.4769Z" fill="#FF0000"/>
<path fill-rule="evenodd" clip-rule="evenodd" d="M95.1411 45.9774C95.6376 45.9774 95.9081 46.1589 95.9081 46.505C95.9081 47.4252 94.1262 47.3647 93.3404 47.2034C93.6171 46.5151 94.2408 45.9774 95.1411 45.9774ZM96.9756 46.4552C96.9756 45.7877 96.4478 45.2979 95.2494 45.2979C93.3053 45.2979 92.0425 46.5674 92.0425 48.14C92.0425 49.156 92.8796 50 94.4098 50C95.4635 50 96.1673 49.4769 96.1673 49.4769C94.8262 49.6212 93.1789 49.4769 93.1789 48.0322C93.1789 47.9748 93.182 47.9175 93.1864 47.8601C95.0165 48.2427 96.9756 47.7801 96.9756 46.4552Z" fill="#283897"/>
<path fill-rule="evenodd" clip-rule="evenodd" d="M71.9941 46.3925C72.0241 46.2526 72.0304 46.1366 72.0135 46.0446C71.9816 45.8706 71.8732 45.7836 71.6892 45.7836C71.5038 45.7836 71.3573 45.8687 71.2521 46.0395C71.1964 46.1297 71.1538 46.2475 71.1238 46.3906C71.0881 46.5602 71.0956 46.7007 71.1463 46.8116C71.1977 46.9226 71.2991 46.9787 71.4519 46.9787C71.5834 46.9787 71.6979 46.9245 71.7937 46.8173C71.8901 46.7095 71.9571 46.5683 71.9941 46.3925ZM72.5432 46.3383C72.4781 46.6452 72.3528 46.8999 72.1656 47.1016C71.979 47.3033 71.7568 47.4041 71.4982 47.4041C71.3367 47.4041 71.2133 47.372 71.1294 47.3064C71.0793 47.268 71.0293 47.1999 70.9817 47.1028L70.9297 47.3518H70.4269L70.9892 44.6831H71.5001L71.3004 45.633C71.3843 45.5416 71.4713 45.4716 71.5596 45.4225C71.6641 45.3626 71.7881 45.3323 71.9308 45.3323C72.1888 45.3323 72.3716 45.4262 72.4781 45.6128C72.5839 45.8006 72.6058 46.042 72.5432 46.3383Z" fill="#283897"/>
<path fill-rule="evenodd" clip-rule="evenodd" d="M72.758 47.7311L72.8225 47.7349C72.872 47.7368 72.9202 47.7349 72.9671 47.7286C73.0135 47.7229 73.0554 47.7097 73.0911 47.6876C73.1255 47.6668 73.1631 47.624 73.2026 47.5584C73.2426 47.4935 73.2614 47.4538 73.2583 47.4387L72.974 45.3757H73.545L73.6659 46.8336L74.379 45.3757H74.9243L73.8406 47.3189C73.6314 47.6939 73.4793 47.9259 73.386 48.016C73.2908 48.1061 73.1306 48.1515 72.9039 48.1515C72.8582 48.1515 72.8213 48.1515 72.7943 48.1509C72.7662 48.1496 72.7255 48.1478 72.6716 48.1446L72.758 47.7311Z" fill="#283897"/>
</svg>